<svg xmlns="http://www.w3.org/2000/svg" width="36" height="36" viewBox="0 0 36 36">
  <path fill="#030303" fill-opacity=".32" d="M11.5 16.875C12.0624198 16.875 12.7242305 16.9250691 13.4324745 17.0250748L13.4329287 20.7648297C13.4329287 21.874923 13.6197048 22.967506 13.9634505 24.0003525L2 24 2 21.625C2 18.46625 8.329375 16.875 11.5 16.875zM11.5 5C14.124375 5 16.25 7.125625 16.25 9.75 16.25 12.374375 14.124375 14.5 11.5 14.5 8.875625 14.5 6.75 12.374375 6.75 9.75 6.75 7.125625 8.875625 5 11.5 5zM24.3636364 10L33.3636364 14 33.3636364 20C33.3636364 25.55 29.5236364 30.74 24.3636364 32 19.2036364 30.74 15.3636364 25.55 15.3636364 20L15.3636364 20 15.3636364 14 24.3636364 10zM29.2756318 16.1140069L22.3647364 22.8832 19.5182351 20.0800759 17.9747209 21.6477378 22.3616386 25.9670811 30.8151946 17.6855496 29.2756318 16.1140069z"/>
</svg>
